<svg id="visual" viewBox="0 0 1920 1080" width="1920" height="1080" xmlns="http://www.w3.org/2000/svg" xmlns:xlink="http://www.w3.org/1999/xlink" version="1.1"><rect x="0" y="0" width="1920" height="1080" fill="#001220"></rect><defs><linearGradient id="grad1_0" x1="43.8%" y1="0%" x2="100%" y2="100%"><stop offset="14.444444444444446%" stop-color="#001220" stop-opacity="1"></stop><stop offset="85.55555555555554%" stop-color="#001220" stop-opacity="1"></stop></linearGradient></defs><defs><linearGradient id="grad2_0" x1="0%" y1="0%" x2="56.3%" y2="100%"><stop offset="14.444444444444446%" stop-color="#001220" stop-opacity="1"></stop><stop offset="85.55555555555554%" stop-color="#001220" stop-opacity="1"></stop></linearGradient></defs><g transform="translate(1920, 0)"><path d="M0 702C-29.8 658.5 -59.7 614.9 -96.8 611.4C-134 607.8 -178.5 644.3 -204.9 630.6C-231.2 616.8 -239.4 552.8 -276.5 542.6C-313.6 532.4 -379.5 576 -412.6 567.9C-445.7 559.8 -445.9 500.1 -462.4 462.4C-479 424.8 -511.9 409.3 -521.8 379.1C-531.7 348.9 -518.6 304 -538.2 274.2C-557.8 244.4 -610.1 229.7 -620.1 201.5C-630.1 173.3 -597.9 131.6 -604.5 95.7C-611.1 59.9 -656.5 30 -702 0L0 0Z" fill="#923cfa"></path></g><g transform="translate(0, 1080)"><path d="M0 -702C41.6 -714.6 83.3 -727.1 109.8 -693.4C136.3 -659.6 147.7 -579.4 186 -572.5C224.3 -565.6 289.6 -632 316 -620.1C342.4 -608.3 330 -518.2 350.3 -482.2C370.6 -446.1 423.5 -464.1 451.1 -451.1C478.7 -438.2 481 -394.2 504.8 -366.8C528.7 -339.4 574.1 -328.5 589 -300.1C603.8 -271.7 588 -225.9 583 -189.4C578 -153 583.8 -125.9 605.5 -95.9C627.1 -65.9 664.5 -32.9 702 0L0 0Z" fill="#923cfa"></path></g></svg>